<?xml version="1.0"?><svg fill="#ffffff" xmlns="http://www.w3.org/2000/svg"  viewBox="0 0 50 50" width="100px" height="100px">    <path d="M25,3.07C12.356,3.07,2.07,12.011,2.07,23c0,6.176,3.338,12.045,8.957,15.805c-0.126,1.034-0.646,3.622-2.787,6.66 c-0.199,0.283-0.225,0.653-0.066,0.961c0.159,0.308,0.476,0.502,0.822,0.504c0.02,0,0.038,0,0.059,0 c5.448-0.001,9.115-3.367,10.283-4.611c1.843,0.405,3.744,0.611,5.662,0.611c12.644,0,22.93-8.94,22.93-19.93S37.644,3.07,25,3.07z M14,16h22c0.552,0,1,0.447,1,1s-0.448,1-1,1H14c-0.552,0-1-0.447-1-1S13.448,16,14,16z M10,24c-0.552,0-1-0.447-1-1s0.448-1,1-1h17 c0.552,0,1,0.447,1,1s-0.448,1-1,1H10z M36,30H14c-0.552,0-1-0.447-1-1s0.448-1,1-1h22c0.552,0,1,0.447,1,1S36.552,30,36,30z M40,24 h-7c-0.552,0-1-0.447-1-1s0.448-1,1-1h7c0.552,0,1,0.447,1,1S40.552,24,40,24z"/></svg>