<svg fill="#000000" xmlns="http://www.w3.org/2000/svg"  viewBox="0 0 128 128" width="96px" height="96px">    <path d="M 115.01172 1.4628906 C 111.94922 1.4753906 108.89961 2.65 106.59961 5 L 69.199219 42.300781 C 59.999219 51.500781 53.099219 63 49.199219 75.5 C 48.899219 76.6 49.200391 77.7 49.900391 78.5 C 50.500391 79.1 51.2 79.400391 52 79.400391 C 52.3 79.400391 52.600391 79.400781 52.900391 79.300781 C 65.400391 75.500781 76.899609 68.500781 86.099609 59.300781 L 117.69922 27.699219 C 118.59922 28.899219 119.09961 30.400391 119.09961 31.900391 C 119.09961 33.800391 118.4 35.500781 117 36.800781 L 101.40039 52.400391 C 100.20039 53.600391 100.20039 55.499609 101.40039 56.599609 C 102.00039 57.199609 102.8 57.5 103.5 57.5 C 104.2 57.5 104.99961 57.199609 105.59961 56.599609 L 121.40039 41 C 123.90039 38.5 125.19922 35.300781 125.19922 31.800781 C 125.19922 28.700781 124.09961 25.700781 122.09961 23.300781 L 123.5 21.900391 C 128.2 17.200391 128.2 9.6003906 123.5 4.9003906 C 121.15 2.6003906 118.07422 1.4503906 115.01172 1.4628906 z M 19 6 C 11.8 6 6 11.8 6 19 L 6 109 C 6 116.2 11.8 122 19 122 L 109 122 C 116.2 122 122 116.2 122 109 L 122 69 C 122 67.3 120.7 66 119 66 C 117.3 66 116 67.3 116 69 L 116 109 C 116 112.9 112.9 116 109 116 L 19 116 C 15.1 116 12 112.9 12 109 L 12 19 C 12 15.1 15.1 12 19 12 L 79 12 C 80.7 12 82 10.7 82 9 C 82 7.3 80.7 6 79 6 L 19 6 z M 115 7.5 C 116.5 7.5 118.09922 8.1007813 119.19922 9.3007812 C 121.59922 11.600781 121.60078 15.399219 119.30078 17.699219 L 82 55 C 74.9 62.1 66.3 67.7 57 71.5 C 60.7 62.2 66.4 53.699609 73.5 46.599609 L 110.80078 9.3007812 C 112.00078 8.1007813 113.5 7.5 115 7.5 z"/></svg>