<svg fill="#000000" xmlns="http://www.w3.org/2000/svg"  viewBox="0 0 50 50" width="96px" height="96px"><path fill="none" stroke="#000000" stroke-miterlimit="10" stroke-width="2" d="M38 32L38 44M44 38L32 38"/><path d="M38,50c-6.617,0-12-5.383-12-12s5.383-12,12-12s12,5.383,12,12S44.617,50,38,50z M38,28c-5.514,0-10,4.486-10,10s4.486,10,10,10s10-4.486,10-10S43.514,28,38,28z"/><path d="M28.943,4.83c-0.858-1.384-2.16-2.255-3.874-2.594c-0.944-1.193-2.754-1.843-5.184-1.843c-3.681,0.068-6.375,1.193-8.007,3.343c-1.933,2.548-2.292,6.41-1.069,11.484c-0.451,0.551-0.783,1.401-0.65,2.513c0.265,2.205,1.122,3.104,1.844,3.465c0.343,1.73,1.288,3.679,2.208,4.596l0.002,0.468c0.009,1.016,0.017,1.896-0.08,3.032c-0.612,1.406-2.649,2.208-4.999,3.132C5.228,33.963,0.364,35.876,0,41.941L-0.062,43h15.14h2.939H22h2.939h2.167C26.402,41.476,26,39.786,26,38c0-2.51,0.777-4.841,2.101-6.77c-0.715-0.364-1.302-0.763-1.725-1.224c-0.178-0.197-0.339-0.421-0.459-0.71c-0.097-1.136-0.089-2.018-0.08-3.031l0.002-0.479c0.896-0.915,1.815-2.857,2.155-4.589c0.723-0.362,1.579-1.261,1.844-3.465c0.131-1.09-0.188-1.929-0.624-2.48C29.795,13.273,30.994,8.129,28.943,4.83z"/></svg>