<svg fill="#000000" xmlns="http://www.w3.org/2000/svg"  viewBox="0 0 50 50" width="96px" height="96px"><path d="M40.337 45.445L32.589 38.697 33.902 37.188 40.063 42.555 48.431 31.896 50.004 33.131z"/><path d="M31.275,40.205l-1.508-1.313l1.313-1.509l1.313-1.509l1.313-1.509l1.509,1.314l4.574,3.983l1.187-1.511c-1.637-3.832-7.752-5.509-10.74-6.923c-0.715-0.364-1.303-0.765-1.725-1.226c-0.178-0.196-0.34-0.421-0.459-0.71c-0.098-1.136-0.09-2.02-0.08-3.029l0.002-0.479c0.895-0.915,1.814-2.857,2.154-4.589c0.723-0.362,1.58-1.261,1.844-3.465c0.131-1.09-0.188-1.929-0.623-2.48c0.58-1.979,1.779-7.123-0.271-10.422c-0.857-1.384-2.16-2.255-3.875-2.594c-0.943-1.193-2.754-1.843-5.184-1.843c-3.681,0.068-6.375,1.193-8.007,3.343c-1.933,2.548-2.292,6.41-1.069,11.484c-0.451,0.551-0.783,1.401-0.65,2.513c0.265,2.205,1.122,3.104,1.844,3.465c0.343,1.73,1.288,3.679,2.208,4.596l0.002,0.468c0.009,1.016,0.017,1.896-0.08,3.032c-0.612,1.406-2.649,2.208-4.999,3.132c-3.906,1.537-8.77,3.45-9.134,9.516L2.073,43h32.411L31.275,40.205z"/></svg>