<svg fill="#000000" xmlns="http://www.w3.org/2000/svg"  viewBox="0 0 50 50" width="100px" height="100px"><path d="M49.778,45.348L25.866,3.931c-0.357-0.619-1.375-0.619-1.732,0l-24,41.569c-0.178,0.31-0.178,0.69,0,1C0.313,46.81,0.643,47,1,47h48c0.006-0.001,0.014-0.001,0.02,0c0.553,0,1-0.447,1-1C50.02,45.751,49.929,45.523,49.778,45.348z M23.494,19.264c0-0.215,0.144-0.359,0.359-0.359h2.295c0.215,0,0.357,0.144,0.357,0.359v14.462c0,0.215-0.143,0.358-0.357,0.358h-2.295c-0.216,0-0.359-0.144-0.359-0.358V19.264z M26.578,39.936c0,0.215-0.143,0.358-0.357,0.358h-2.438c-0.215,0-0.359-0.144-0.359-0.358v-2.619c0-0.215,0.145-0.358,0.359-0.358h2.438c0.217,0,0.357,0.144,0.357,0.358V39.936z"/></svg>