<svg xmlns="http://www.w3.org/2000/svg"  viewBox="0 0 512 512" width="128px" height="128px"><rect width="480" height="336" x="16" y="112" fill="#78b9eb"/><rect width="480" height="48" x="16" y="64" fill="#787680"/><g><path d="M496,56H16a8,8,0,0,0-8,8V448a8,8,0,0,0,8,8H496a8,8,0,0,0,8-8V64A8,8,0,0,0,496,56Zm-8,384H24V120H488Zm0-336H24V72H488Z"/><path d="M40,96h8a8,8,0,0,0,0-16H40a8,8,0,0,0,0,16Z"/><path d="M72,96h8a8,8,0,0,0,0-16H72a8,8,0,0,0,0,16Z"/><path d="M104,96h8a8,8,0,0,0,0-16h-8a8,8,0,0,0,0,16Z"/><path d="M296,208H216a8,8,0,0,0-8,8V328a8,8,0,0,0,8,8h80a8,8,0,0,0,8-8V216A8,8,0,0,0,296,208Zm-8,112H224V224h64Z"/><path d="M192,216V328a8,8,0,0,1-16,0V280H104a8,8,0,0,1-8-8V216a8,8,0,0,1,16,0v48h64V216a8,8,0,0,1,16,0Z"/><path d="M416,216V328a8,8,0,0,1-16,0V280H328a8,8,0,0,1-8-8V216a8,8,0,0,1,16,0v48h64V216a8,8,0,0,1,16,0Z"/></g></svg>