<svg xmlns="http://www.w3.org/2000/svg" xmlns:xlink="http://www.w3.org/1999/xlink" width="375" zoomAndPan="magnify" viewBox="0 0 375 374.999991" height="374.999991" preserveAspectRatio="xMidYMid meet" version="1.0"><defs><clipPath id="id1"><path d="M 0 2 L 375 2 L 375 332.933594 L 0 332.933594 Z M 0 2 " clip-rule="nonzero"/></clipPath></defs><g clip-path="url(#id1)"><path fill="rgb(12.548828%, 8.628845%, 0%)" d="M 187.460938 332.945312 L 44.925781 214.886719 C 16.378906 191.246094 0.0117188 156.421875 0.0117188 119.351562 C 0.0117188 85.257812 13.5 53.523438 37.992188 29.992188 C 59.15625 9.667969 88.289062 -0.0585938 117.925781 3.316406 C 145.542969 6.460938 170.414062 20.335938 187.492188 41.828125 C 204.570312 20.335938 229.441406 6.460938 257.058594 3.316406 C 286.699219 -0.0585938 315.828125 9.667969 336.992188 29.992188 C 361.484375 53.523438 374.972656 85.257812 374.972656 119.351562 C 374.972656 138.101562 370.726562 156.96875 362.695312 173.910156 C 354.660156 190.847656 342.742188 206.074219 328.222656 217.933594 Z M 106.382812 16.21875 C 84.316406 16.21875 63.238281 24.542969 47.378906 39.773438 C 25.574219 60.722656 13.5625 88.980469 13.5625 119.351562 C 13.5625 152.371094 28.144531 183.386719 53.566406 204.445312 L 187.519531 315.390625 L 319.652344 207.433594 C 346.195312 185.742188 361.421875 153.640625 361.421875 119.351562 C 361.421875 88.980469 349.410156 60.722656 327.605469 39.773438 C 309.363281 22.25 284.207031 13.871094 258.589844 16.789062 C 231.761719 19.84375 207.914062 34.539062 193.164062 57.105469 L 187.492188 65.785156 L 181.820312 57.105469 C 167.070312 34.539062 143.222656 19.84375 116.390625 16.789062 C 113.042969 16.40625 109.703125 16.21875 106.382812 16.21875 Z M 106.382812 16.21875 " fill-opacity="1" fill-rule="nonzero"/></g></svg>