<svg xmlns="http://www.w3.org/2000/svg" xmlns:xlink="http://www.w3.org/1999/xlink" width="375" zoomAndPan="magnify" viewBox="0 0 375 374.999991" height="374.999991" preserveAspectRatio="xMidYMid meet" version="1.0"><path fill="rgb(18.03894%, 26.669312%, 35.289001%)" d="M 375 187.5 C 375 291.054688 291.054688 375 187.5 375 C 83.945312 375 0 291.054688 0 187.5 C 0 83.949219 83.945312 0 187.5 0 C 291.054688 0 375 83.949219 375 187.5 " fill-opacity="0.8" fill-rule="nonzero"/><path fill="rgb(97.648621%, 98.039246%, 98.039246%)" d="M 235.839844 292.5 C 233.710938 292.5 231.585938 291.6875 229.960938 290.066406 L 133.277344 193.382812 C 130.03125 190.132812 130.03125 184.867188 133.277344 181.617188 L 229.960938 84.933594 C 233.207031 81.6875 238.472656 81.6875 241.722656 84.933594 C 244.972656 88.183594 244.972656 93.449219 241.722656 96.695312 L 150.917969 187.5 L 241.722656 278.300781 C 244.972656 281.550781 244.972656 286.816406 241.722656 290.066406 C 240.097656 291.6875 237.96875 292.5 235.839844 292.5 " fill-opacity="1" fill-rule="nonzero"/></svg>