<svg xmlns="http://www.w3.org/2000/svg" xmlns:xlink="http://www.w3.org/1999/xlink" width="375" zoomAndPan="magnify" viewBox="0 0 375 374.999991" height="374.999991" preserveAspectRatio="xMidYMid meet" version="1.0"><rect x="-37.5" width="450" fill="rgb(100%, 100%, 100%)" y="-37.499999" height="449.999989" fill-opacity="1"/><rect x="-37.5" width="450" fill="rgb(100%, 100%, 100%)" y="-37.499999" height="449.999989" fill-opacity="1"/><path fill="rgb(18.03894%, 26.669312%, 35.289001%)" d="M 0 187.5 C 0 291.054688 83.945312 375 187.5 375 C 291.054688 375 375 291.054688 375 187.5 C 375 83.949219 291.054688 0 187.5 0 C 83.945312 0 0 83.949219 0 187.5 " fill-opacity="0.8" fill-rule="nonzero"/><path fill="rgb(97.648621%, 98.039246%, 98.039246%)" d="M 139.160156 292.5 C 141.285156 292.5 143.414062 291.6875 145.039062 290.066406 L 241.722656 193.382812 C 244.96875 190.132812 244.96875 184.867188 241.722656 181.617188 L 145.039062 84.933594 C 141.789062 81.6875 136.527344 81.6875 133.277344 84.933594 C 130.027344 88.183594 130.027344 93.449219 133.277344 96.695312 L 224.078125 187.5 L 133.277344 278.300781 C 130.027344 281.550781 130.027344 286.816406 133.277344 290.066406 C 134.898438 291.6875 137.03125 292.5 139.160156 292.5 " fill-opacity="1" fill-rule="nonzero"/></svg>