<svg fill="#000000" xmlns="http://www.w3.org/2000/svg"  viewBox="0 0 64 64" width="128px" height="128px"><path d="M 32 4 C 16.547862 4 4 16.547873 4 32 C 4 47.452127 16.547862 60 32 60 C 47.452138 60 60 47.452127 60 32 C 60 16.547873 47.452138 4 32 4 z M 32 6 C 46.371259 6 58 17.628751 58 32 C 58 46.371249 46.371259 58 32 58 C 17.628741 58 6 46.371249 6 32 C 6 17.628751 17.628741 6 32 6 z M 31.984375 8.9863281 A 1.0001 1.0001 0 0 0 31 10 L 31 11.025391 C 30.441205 11.05167 29.890367 11.104578 29.34375 11.173828 L 29.164062 10.160156 A 1.0001 1.0001 0 0 0 28.1875 9.3203125 A 1.0001 1.0001 0 0 0 27.195312 10.507812 L 27.373047 11.519531 C 26.829779 11.642058 26.292119 11.779548 25.765625 11.943359 L 25.416016 10.984375 A 1.0001 1.0001 0 0 0 24.507812 10.314453 A 1.0001 1.0001 0 0 0 23.537109 11.669922 L 23.886719 12.630859 C 23.373109 12.846586 22.878681 13.095155 22.386719 13.349609 L 21.865234 12.447266 A 1.0001 1.0001 0 0 0 20.955078 11.935547 A 1.0001 1.0001 0 0 0 20.134766 13.447266 L 20.65625 14.351562 C 20.18988 14.652228 19.740896 14.974947 19.300781 15.310547 L 18.625 14.503906 A 1.0001 1.0001 0 0 0 17.835938 14.136719 A 1.0001 1.0001 0 0 0 17.09375 15.789062 L 17.769531 16.595703 C 17.362617 16.971856 16.971856 17.362617 16.595703 17.769531 L 15.789062 17.09375 A 1.0001 1.0001 0 0 0 15.148438 16.849609 A 1.0001 1.0001 0 0 0 14.503906 18.625 L 15.310547 19.300781 C 14.974947 19.740896 14.652227 20.189879 14.351562 20.65625 L 13.447266 20.134766 A 1.0001 1.0001 0 0 0 12.873047 19.994141 A 1.0001 1.0001 0 0 0 12.447266 21.865234 L 13.349609 22.386719 C 13.095155 22.878681 12.846586 23.373109 12.630859 23.886719 L 11.669922 23.537109 A 1.0001 1.0001 0 0 0 11.277344 23.472656 A 1.0001 1.0001 0 0 0 10.984375 25.416016 L 11.943359 25.765625 C 11.779548 26.292119 11.642058 26.829779 11.519531 27.373047 L 10.507812 27.195312 A 1.0001 1.0001 0 0 0 10.308594 27.177734 A 1.0001 1.0001 0 0 0 10.160156 29.164062 L 11.173828 29.34375 C 11.104578 29.890367 11.05167 30.441205 11.025391 31 L 10 31 A 1.0001 1.0001 0 1 0 10 33 L 11.025391 33 C 11.05167 33.558795 11.104578 34.109633 11.173828 34.65625 L 10.160156 34.835938 A 1.0001 1.0001 0 1 0 10.507812 36.804688 L 11.519531 36.626953 C 11.642058 37.170221 11.779548 37.707881 11.943359 38.234375 L 10.984375 38.583984 A 1.0001 1.0001 0 1 0 11.669922 40.462891 L 12.630859 40.113281 C 12.846586 40.626891 13.095155 41.121319 13.349609 41.613281 L 12.447266 42.134766 A 1.0001 1.0001 0 1 0 13.447266 43.865234 L 14.351562 43.34375 C 14.652227 43.810121 14.974947 44.259104 15.310547 44.699219 L 14.503906 45.375 A 1.0001 1.0001 0 1 0 15.789062 46.90625 L 16.595703 46.230469 C 16.971856 46.637383 17.362617 47.028144 17.769531 47.404297 L 17.09375 48.210938 A 1.0001 1.0001 0 1 0 18.625 49.496094 L 19.300781 48.689453 C 19.740896 49.025053 20.18988 49.347772 20.65625 49.648438 L 20.134766 50.552734 A 1.0001 1.0001 0 1 0 21.865234 51.552734 L 22.386719 50.650391 C 22.878681 50.904845 23.373109 51.153414 23.886719 51.369141 L 23.537109 52.330078 A 1.0001 1.0001 0 1 0 25.416016 53.015625 L 25.765625 52.056641 C 26.292119 52.220452 26.829779 52.357942 27.373047 52.480469 L 27.195312 53.492188 A 1.0001 1.0001 0 1 0 29.164062 53.839844 L 29.34375 52.826172 C 29.890367 52.895422 30.441205 52.94833 31 52.974609 L 31 54 A 1.0001 1.0001 0 1 0 33 54 L 33 52.974609 C 33.558795 52.94833 34.109633 52.895422 34.65625 52.826172 L 34.835938 53.839844 A 1.0001 1.0001 0 1 0 36.804688 53.492188 L 36.626953 52.480469 C 37.170221 52.357942 37.707881 52.220452 38.234375 52.056641 L 38.583984 53.015625 A 1.0001 1.0001 0 1 0 40.462891 52.330078 L 40.113281 51.369141 C 40.626891 51.153414 41.121319 50.904845 41.613281 50.650391 L 42.134766 51.552734 A 1.0001 1.0001 0 1 0 43.865234 50.552734 L 43.34375 49.648438 C 43.81012 49.347772 44.259104 49.025053 44.699219 48.689453 L 45.375 49.496094 A 1.0001 1.0001 0 1 0 46.90625 48.210938 L 46.230469 47.404297 C 46.637383 47.028144 47.028144 46.637383 47.404297 46.230469 L 48.210938 46.90625 A 1.0001 1.0001 0 1 0 49.496094 45.375 L 48.689453 44.699219 C 49.025053 44.259104 49.347773 43.810121 49.648438 43.34375 L 50.552734 43.865234 A 1.0001 1.0001 0 1 0 51.552734 42.134766 L 50.650391 41.613281 C 50.904845 41.121319 51.153414 40.626891 51.369141 40.113281 L 52.330078 40.462891 A 1.0001 1.0001 0 1 0 53.015625 38.583984 L 52.056641 38.234375 C 52.220452 37.707881 52.357942 37.170221 52.480469 36.626953 L 53.492188 36.804688 A 1.0001 1.0001 0 1 0 53.839844 34.835938 L 52.826172 34.65625 C 52.895422 34.109633 52.94833 33.558795 52.974609 33 L 54 33 A 1.0001 1.0001 0 1 0 54 31 L 52.974609 31 C 52.94833 30.441205 52.895422 29.890367 52.826172 29.34375 L 53.839844 29.164062 A 1.0001 1.0001 0 0 0 53.662109 27.177734 A 1.0001 1.0001 0 0 0 53.492188 27.195312 L 52.480469 27.373047 C 52.357942 26.829779 52.220452 26.292119 52.056641 25.765625 L 53.015625 25.416016 A 1.0001 1.0001 0 0 0 52.693359 23.470703 A 1.0001 1.0001 0 0 0 52.330078 23.537109 L 51.369141 23.886719 C 51.153414 23.373109 50.904845 22.878681 50.650391 22.386719 L 51.552734 21.865234 A 1.0001 1.0001 0 0 0 51.097656 19.994141 A 1.0001 1.0001 0 0 0 50.552734 20.134766 L 49.648438 20.65625 C 49.347773 20.189879 49.025053 19.740896 48.689453 19.300781 L 49.496094 18.625 A 1.0001 1.0001 0 0 0 48.822266 16.851562 A 1.0001 1.0001 0 0 0 48.210938 17.09375 L 47.404297 17.769531 C 47.028144 17.362617 46.637383 16.971856 46.230469 16.595703 L 46.90625 15.789062 A 1.0001 1.0001 0 0 0 46.132812 14.136719 A 1.0001 1.0001 0 0 0 45.375 14.503906 L 44.699219 15.310547 C 44.259104 14.974947 43.81012 14.652228 43.34375 14.351562 L 43.865234 13.447266 A 1.0001 1.0001 0 0 0 43.015625 11.935547 A 1.0001 1.0001 0 0 0 42.134766 12.447266 L 41.613281 13.349609 C 41.121319 13.095155 40.626891 12.846586 40.113281 12.630859 L 40.462891 11.669922 A 1.0001 1.0001 0 0 0 39.5625 10.314453 A 1.0001 1.0001 0 0 0 38.583984 10.984375 L 38.234375 11.943359 C 37.707881 11.779548 37.170221 11.642058 36.626953 11.519531 L 36.804688 10.507812 A 1.0001 1.0001 0 0 0 35.78125 9.3203125 A 1.0001 1.0001 0 0 0 34.835938 10.160156 L 34.65625 11.173828 C 34.109633 11.104578 33.558795 11.05167 33 11.025391 L 33 10 A 1.0001 1.0001 0 0 0 31.984375 8.9863281 z M 31.882812 13.005859 A 1.0001 1.0001 0 0 0 32.125 13.005859 C 33.14626 13.012491 34.142478 13.114179 35.119141 13.275391 A 1.0001 1.0001 0 0 0 35.519531 13.337891 C 37.57296 13.721943 39.509055 14.431684 41.271484 15.417969 A 1.0001 1.0001 0 0 0 41.681641 15.667969 C 42.551081 16.183917 43.383645 16.750964 44.15625 17.394531 A 1.0002925 1.0002925 0 0 0 44.175781 17.412109 C 45.039709 18.133767 45.839112 18.932493 46.5625 19.794922 A 1.0002925 1.0002925 0 0 0 46.587891 19.824219 C 47.237197 20.601533 47.810181 21.438816 48.330078 22.314453 A 1.0001 1.0001 0 0 0 48.582031 22.726562 C 49.568436 24.488842 50.277867 26.425222 50.662109 28.478516 A 1.0001 1.0001 0 0 0 50.726562 28.892578 C 50.886952 29.868051 50.98793 30.862908 50.994141 31.882812 A 1.0001 1.0001 0 0 0 50.994141 32.125 C 50.972216 35.50113 50.066311 38.660519 48.505859 41.398438 A 1.0001 1.0001 0 0 0 48.416016 41.544922 C 47.899466 42.432418 47.328446 43.281958 46.679688 44.070312 A 1.0001 1.0001 0 0 0 46.46875 44.306641 C 45.806125 45.085096 45.081385 45.810253 44.302734 46.472656 A 1.0001 1.0001 0 0 0 44.076172 46.675781 C 43.290972 47.322431 42.44422 47.890774 41.560547 48.40625 A 1.0001 1.0001 0 0 0 41.398438 48.505859 C 38.657324 50.068132 35.493846 50.974241 32.113281 50.994141 A 1.0001 1.0001 0 0 0 31.984375 50.986328 A 1.0001 1.0001 0 0 0 31.875 50.994141 C 28.48784 50.972145 25.320231 50.058161 22.576172 48.488281 A 1.0001 1.0001 0 0 0 22.464844 48.421875 C 21.573269 47.903668 20.719355 47.331243 19.927734 46.679688 A 1.0001 1.0001 0 0 0 19.697266 46.472656 C 18.919316 45.810849 18.195343 45.086251 17.533203 44.308594 A 1.0001 1.0001 0 0 0 17.316406 44.066406 C 16.66331 43.272316 16.089254 42.416034 15.570312 41.521484 A 1.0001 1.0001 0 0 0 15.513672 41.429688 C 13.94073 38.682304 13.026515 35.509455 13.005859 32.117188 A 1.0001 1.0001 0 0 0 13.005859 31.875 C 13.012491 30.85374 13.114179 29.857522 13.275391 28.880859 A 1.0001 1.0001 0 0 0 13.337891 28.480469 C 13.721943 26.427041 14.431684 24.490945 15.417969 22.728516 A 1.0001 1.0001 0 0 0 15.667969 22.318359 C 16.184861 21.447328 16.753472 20.613672 17.398438 19.839844 A 1.0002925 1.0002925 0 0 0 17.412109 19.824219 C 18.137333 18.956021 18.941254 18.153949 19.808594 17.427734 A 1.0002925 1.0002925 0 0 0 19.824219 17.412109 C 20.601532 16.762802 21.438816 16.18982 22.314453 15.669922 A 1.0001 1.0001 0 0 0 22.726562 15.417969 C 24.488842 14.431563 26.425221 13.722134 28.478516 13.337891 A 1.0001 1.0001 0 0 0 28.892578 13.273438 C 29.868052 13.113048 30.862907 13.01207 31.882812 13.005859 z M 32 16 C 30.777 16 29.586406 16.135531 28.441406 16.394531 C 26.434406 16.847531 25.440047 19.113906 26.498047 20.878906 L 31.695312 29.544922 C 32.237313 30.447922 33.215531 31 34.269531 31 L 44.369141 31 C 46.373141 31 47.857953 29.058438 47.251953 27.148438 C 45.195953 20.678437 39.146 16 32 16 z M 32 18 C 38.129 18 43.491703 21.919906 45.345703 27.753906 C 45.465703 28.131906 45.306172 28.430219 45.201172 28.574219 C 45.107172 28.703219 44.839141 29 44.369141 29 L 40.480469 29 C 40.40782 28.794753 40.327065 28.594553 40.240234 28.396484 L 41.160156 27.865234 A 1.0001 1.0001 0 0 0 40.705078 25.994141 A 1.0001 1.0001 0 0 0 40.160156 26.134766 L 39.244141 26.664062 C 39.018597 26.358719 38.771242 26.070949 38.509766 25.796875 L 39.193359 24.982422 A 1.0001 1.0001 0 0 0 38.419922 23.330078 A 1.0001 1.0001 0 0 0 37.662109 23.697266 L 36.978516 24.511719 C 36.664162 24.302371 36.336428 24.112556 35.996094 23.943359 L 36.359375 22.945312 A 1.0001 1.0001 0 0 0 35.458984 21.589844 A 1.0001 1.0001 0 0 0 34.480469 22.261719 L 34.117188 23.259766 C 33.752782 23.171645 33.379931 23.104713 33 23.0625 L 33 22 A 1.0001 1.0001 0 0 0 31.984375 20.986328 A 1.0001 1.0001 0 0 0 31 22 L 31 23.0625 C 30.734822 23.092055 30.47326 23.133204 30.214844 23.185547 L 28.212891 19.847656 C 27.985891 19.469656 28.076391 19.121266 28.150391 18.947266 C 28.212391 18.801266 28.409813 18.451703 28.882812 18.345703 C 29.898812 18.116703 30.947 18 32 18 z M 22.212891 20.457031 C 21.371891 20.457031 20.52125 20.806578 19.90625 21.517578 C 17.47225 24.328578 16 27.989 16 32 C 16 36.011 17.47225 39.672375 19.90625 42.484375 C 20.52225 43.195375 21.371891 43.542969 22.212891 43.542969 C 23.213891 43.542969 24.203297 43.050797 24.779297 42.091797 L 29.904297 33.542969 C 30.474297 32.592969 30.474297 31.407031 29.904297 30.457031 L 24.779297 21.908203 C 24.203297 20.949203 23.213891 20.457031 22.212891 20.457031 z M 22.212891 22.457031 C 22.381891 22.457031 22.804453 22.5045 23.064453 22.9375 L 25.066406 26.277344 C 24.961609 26.404123 24.859595 26.533457 24.761719 26.666016 L 23.839844 26.134766 A 1.0001 1.0001 0 0 0 23.265625 25.994141 A 1.0001 1.0001 0 0 0 22.839844 27.865234 L 23.753906 28.392578 C 23.602491 28.738067 23.480762 29.09827 23.373047 29.464844 L 22.326172 29.279297 A 1.0001 1.0001 0 0 0 22.126953 29.261719 A 1.0001 1.0001 0 0 0 21.978516 31.248047 L 23.029297 31.433594 C 23.017512 31.621794 23 31.808887 23 32 C 23 32.191113 23.017512 32.378206 23.029297 32.566406 L 21.978516 32.751953 A 1.0001 1.0001 0 1 0 22.326172 34.720703 L 23.373047 34.535156 C 23.480762 34.90173 23.602491 35.261933 23.753906 35.607422 L 22.839844 36.134766 A 1.0001 1.0001 0 1 0 23.839844 37.865234 L 24.761719 37.333984 C 24.859595 37.466543 24.961609 37.595877 25.066406 37.722656 L 23.064453 41.0625 C 22.804453 41.4965 22.381891 41.542969 22.212891 41.542969 C 22.035891 41.542969 21.696922 41.495781 21.419922 41.175781 C 19.213922 38.628781 18 35.37 18 32 C 18 28.63 19.214922 25.371219 21.419922 22.824219 C 21.696922 22.505219 22.034891 22.457031 22.212891 22.457031 z M 32.128906 25.005859 C 32.850704 25.018932 33.543727 25.143139 34.195312 25.357422 A 1.0001 1.0001 0 0 0 34.59375 25.5 C 35.269939 25.769003 35.89477 26.135593 36.447266 26.589844 A 1.000172 1.000172 0 0 0 36.550781 26.677734 C 37.087464 27.136705 37.550453 27.676889 37.927734 28.277344 A 1.0001 1.0001 0 0 0 38.185547 28.724609 C 38.233896 28.815927 38.283754 28.906332 38.328125 29 L 34.269531 29 C 33.920531 29 33.590156 28.813672 33.410156 28.513672 L 31.333984 25.052734 C 31.521949 25.034821 31.708388 25.010535 31.900391 25.007812 A 1.0001 1.0001 0 0 0 32.128906 25.005859 z M 26.175781 28.126953 L 28.189453 31.486328 C 28.379453 31.803328 28.379453 32.197625 28.189453 32.515625 L 26.175781 35.873047 C 26.112661 35.778602 26.052696 35.681613 25.994141 35.583984 A 1.0001 1.0001 0 0 0 25.875 35.384766 C 25.518764 34.743138 25.264176 34.039374 25.125 33.291016 A 1.0001 1.0001 0 0 0 25.125 33.289062 A 1.0001 1.0001 0 0 0 25.107422 33.177734 C 25.042662 32.794703 25 32.403024 25 32 C 25 31.661766 25.032207 31.33224 25.078125 31.007812 A 1.0001 1.0001 0 0 0 25.152344 30.535156 C 25.152344 30.535156 25.152344 30.533203 25.152344 30.533203 C 25.289611 29.886876 25.52241 29.279686 25.824219 28.714844 A 1.0001 1.0001 0 0 0 26.064453 28.304688 C 26.101517 28.245458 26.137006 28.184971 26.175781 28.126953 z M 32 31 A 1 1 0 0 0 32 33 A 1 1 0 0 0 32 31 z M 34.269531 33 C 33.215531 33 32.237312 33.553031 31.695312 34.457031 L 26.498047 43.123047 C 25.440047 44.887047 26.434406 47.151469 28.441406 47.605469 C 29.586406 47.863469 30.777 48 32 48 C 39.146 48 45.195953 43.321562 47.251953 36.851562 C 47.857953 34.941563 46.373141 33 44.369141 33 L 34.269531 33 z M 34.269531 35 L 38.328125 35 C 38.267824 35.127199 38.200416 35.250218 38.132812 35.373047 A 1.0001 1.0001 0 0 0 37.982422 35.638672 C 37.611268 36.248357 37.149273 36.795429 36.615234 37.263672 A 1.0001 1.0001 0 0 0 36.380859 37.458984 C 35.828137 37.90259 35.207975 38.264802 34.535156 38.525391 A 1.0001 1.0001 0 0 0 34.263672 38.621094 C 33.589002 38.85076 32.868293 38.981765 32.117188 38.994141 A 1.0001 1.0001 0 0 0 31.984375 38.986328 A 1.0001 1.0001 0 0 0 31.894531 38.992188 C 31.704541 38.989336 31.520016 38.964995 31.333984 38.947266 L 33.410156 35.484375 C 33.590156 35.185375 33.920531 35 34.269531 35 z M 40.480469 35 L 44.369141 35 C 44.839141 35 45.107172 35.297781 45.201172 35.425781 C 45.306172 35.569781 45.465703 35.866141 45.345703 36.244141 C 43.491703 42.079141 38.129 46 32 46 C 30.947 46 29.898813 45.884297 28.882812 45.654297 C 28.410812 45.547297 28.213391 45.195781 28.150391 45.050781 C 28.076391 44.876781 27.985891 44.529391 28.212891 44.150391 L 30.212891 40.814453 C 30.471914 40.866977 30.73418 40.907873 31 40.9375 L 31 42 A 1.0001 1.0001 0 1 0 33 42 L 33 40.9375 C 33.379941 40.895276 33.752777 40.828376 34.117188 40.740234 L 34.480469 41.738281 A 1.0001 1.0001 0 1 0 36.359375 41.054688 L 35.996094 40.056641 C 36.336427 39.887415 36.664165 39.697656 36.978516 39.488281 L 37.662109 40.302734 A 1.0001 1.0001 0 1 0 39.193359 39.017578 L 38.509766 38.203125 C 38.771305 37.928994 39.018548 37.641337 39.244141 37.335938 L 40.160156 37.865234 A 1.0001 1.0001 0 1 0 41.160156 36.134766 L 40.240234 35.603516 C 40.327064 35.405468 40.407821 35.205218 40.480469 35 z"/></svg>